<svg id="Layer_1" data-name="Layer 1" xmlns="http://www.w3.org/2000/svg" viewBox="0 0 472.49 145.94"><defs><style>.cls-1{fill:#fff}</style></defs><g id="Page-1"><g id="populate"><path id="Shape" class="cls-1" d="M390.55 50.23h13.94V0h-13.94v50.23z"/><path id="Shape-2" data-name="Shape" class="cls-1" d="M472.49 36.29a22.32 22.32 0 00-22.3-22.34v14a8.37 8.37 0 018.36 8.38v7.53h-16.8v11.9h30.72V36.29zm-68-8.4h13.94V13.94h-13.94v13.95zm-52.88 0v-14a22.32 22.32 0 00-22.3 22.34v27.94h13.94V36.29a8.37 8.37 0 018.36-8.38zm-39.66 58.59a22.25 22.25 0 0014.77-5.79l-9.82-10a8.18 8.18 0 01-13.32-6.56h-13.93a22.32 22.32 0 0022.3 22.34zm-36.16-22.3V50.23h-13.95v13.95a8.37 8.37 0 01-8.36 8.38v14a22.32 22.32 0 0022.3-22.34zm-69.95-13.95h13.94V36.29a22.32 22.32 0 00-22.3-22.34v14a8.37 8.37 0 018.36 8.38v13.9zm-8.36 22.32a8.37 8.37 0 01-8.36-8.33h-13.94V120h13.94V84.88a22.18 22.18 0 008.36 1.64v-14zm-47.35-8.38h13.94V36.29a22.32 22.32 0 00-22.3-22.34v14a8.37 8.37 0 018.36 8.38v27.85zm-16.72 0V50.23h-13.94v13.95a22.32 22.32 0 0022.3 22.34v-14a8.37 8.37 0 01-8.36-8.38zm-25.14 0V50.23H94.33v13.95A8.37 8.37 0 0186 72.55v14a22.32 22.32 0 0022.3-22.34zM86 27.91v-14a22.32 22.32 0 00-22.3 22.34v27.92h13.91V36.29A8.37 8.37 0 0186 27.91z"/><path id="Shape-3" data-name="Shape" class="cls-1" d="M472 64.21h-14a8.11 8.11 0 11-16.21 0v-8.45h-13.9v8.41a22.31 22.31 0 0021.77 22.31h.53A22.31 22.31 0 00472 64.21zM366.94 80.37a22.19 22.19 0 0015.33 6.14v-14a8.37 8.37 0 01-8.36-8.35v-14H360v14a8.37 8.37 0 01-8.36 8.35v14a22.19 22.19 0 0015.33-6.14zM289.63 35h13.94V.88h-13.96V35zm-58.45 29.18h13.94V13.95h-13.94v50.23zm-33.7-36.27v-14a22.32 22.32 0 00-22.3 22.34v27.93h13.94V36.29a8.37 8.37 0 018.36-8.38zm-33.4 36.27h-13.94a8.37 8.37 0 01-8.36 8.38v14a22.32 22.32 0 0022.3-22.34zM94.33 50.23h13.92V36.29a22.32 22.32 0 00-22.3-22.34v14a8.37 8.37 0 018.36 8.38v13.9zM34.39 120h18.08v-12.49H34.39v-5.6c0-7.69-1.28-11.24-4.2-14.8-2.7-3.35-8.11-5.55-13.31-5.55a17.41 17.41 0 00-13.45 6A15.1 15.1 0 000 97.85c0 4.39 1.58 10 1.58 15.9S0 125.12 0 129.66A15.15 15.15 0 003.44 140a17.41 17.41 0 0013.45 6c5.19 0 10.6-2.21 13.31-5.55 2.92-3.56 4.2-7.12 4.2-14.8V120zm-9.15-20.57a8 8 0 11-8-8 8 8 0 018 8zm0 28.74a8 8 0 11-8-8 8 8 0 018 8z"/><path id="Shape-4" data-name="Shape" class="cls-1" d="M450.19 27.91v-14a22.32 22.32 0 00-22.3 22.34v19.51h13.94V36.29a8.37 8.37 0 018.36-8.38zm-37.34 58.6v-14a8.37 8.37 0 01-8.36-8.38v-13.9h-13.94v13.94a22.32 22.32 0 0022.3 22.34zM360 50.23h13.94V36.29a22.32 22.32 0 00-22.3-22.34v14a8.37 8.37 0 018.36 8.34v13.94zm-8.36 22.32a8.37 8.37 0 01-8.36-8.38h-13.97a22.32 22.32 0 0022.3 22.34v-14zm-62-8.1h13.94V35h-13.95v29.45zm-27.8-14.22h13.94V13.95h-13.94v36.28zm-8.36 36.28v-14a8.37 8.37 0 01-8.36-8.38h-13.94a22.32 22.32 0 0022.3 22.34zm-33.69-22.33V50.23h-13.95v13.95a8.37 8.37 0 01-8.36 8.38v14a22.32 22.32 0 0022.3-22.34zm-78-36.27v-14a22.32 22.32 0 00-22.3 22.34v13.98h13.94V36.29a8.37 8.37 0 018.36-8.38zm-64.17 57a22.18 22.18 0 008.38 1.6v-14a8.37 8.37 0 01-8.36-8.33H63.66V120h13.95V84.88z"/></g></g></svg>