<svg width="304" height="101" viewBox="0 0 304 101" fill="none" xmlns="http://www.w3.org/2000/svg">
<rect x="-975" y="-2621" width="1350" height="7871" fill="white"/>
<path d="M2.224 18V15.48L7.192 10.98C7.504 10.68 7.756 10.374 7.948 10.062C8.14 9.75 8.236 9.402 8.236 9.018C8.236 8.562 8.092 8.196 7.804 7.92C7.516 7.632 7.132 7.488 6.652 7.488C6.148 7.488 5.734 7.668 5.41 8.028C5.098 8.376 4.912 8.838 4.852 9.414L1.954 9.018C2.026 8.37 2.2 7.794 2.476 7.29C2.764 6.786 3.124 6.36 3.556 6.012C3.988 5.652 4.48 5.382 5.032 5.202C5.596 5.01 6.19 4.914 6.814 4.914C7.402 4.914 7.972 4.992 8.524 5.148C9.076 5.304 9.568 5.544 10 5.868C10.432 6.192 10.774 6.6 11.026 7.092C11.29 7.584 11.422 8.16 11.422 8.82C11.422 9.276 11.362 9.69 11.242 10.062C11.122 10.422 10.954 10.758 10.738 11.07C10.534 11.382 10.294 11.676 10.018 11.952C9.754 12.216 9.478 12.48 9.19 12.744L6.238 15.372H11.44V18H2.224ZM17.7307 18V8.64L15.3547 10.476L13.7887 8.334L17.9827 5.256H20.7547V18H17.7307ZM27.0634 20.232H24.6334L25.9834 15.12H28.8094L27.0634 20.232ZM40.2719 14.364C40.2719 15.036 40.1399 15.624 39.8759 16.128C39.6119 16.62 39.2579 17.034 38.8139 17.37C38.3819 17.694 37.8719 17.934 37.2839 18.09C36.7079 18.258 36.1079 18.342 35.4839 18.342C34.8479 18.342 34.2419 18.258 33.6659 18.09C33.0899 17.934 32.5799 17.694 32.1359 17.37C31.7039 17.046 31.3559 16.638 31.0919 16.146C30.8279 15.642 30.6959 15.054 30.6959 14.382C30.6959 13.998 30.7559 13.644 30.8759 13.32C30.9959 12.984 31.1579 12.69 31.3619 12.438C31.5779 12.174 31.8239 11.952 32.0999 11.772C32.3759 11.58 32.6699 11.436 32.9819 11.34V11.304C32.4299 11.1 31.9679 10.77 31.5959 10.314C31.2239 9.846 31.0379 9.258 31.0379 8.55C31.0379 7.962 31.1579 7.44 31.3979 6.984C31.6379 6.528 31.9619 6.15 32.3699 5.85C32.7779 5.538 33.2519 5.304 33.7919 5.148C34.3319 4.992 34.8959 4.914 35.4839 4.914C36.0719 4.914 36.6299 4.992 37.1579 5.148C37.6979 5.292 38.1719 5.514 38.5799 5.814C38.9879 6.114 39.3119 6.492 39.5519 6.948C39.8039 7.392 39.9299 7.908 39.9299 8.496C39.9299 9.204 39.7499 9.798 39.3899 10.278C39.0299 10.758 38.5619 11.094 37.9859 11.286V11.34C38.3099 11.436 38.6099 11.58 38.8859 11.772C39.1619 11.952 39.4019 12.174 39.6059 12.438C39.8099 12.69 39.9719 12.984 40.0919 13.32C40.2119 13.644 40.2719 13.992 40.2719 14.364ZM37.0139 8.712C37.0139 8.292 36.8639 7.944 36.5639 7.668C36.2639 7.392 35.9039 7.254 35.4839 7.254C35.0279 7.254 34.6619 7.392 34.3859 7.668C34.1099 7.944 33.9719 8.292 33.9719 8.712C33.9719 9.12 34.1039 9.474 34.3679 9.774C34.6439 10.074 35.0159 10.224 35.4839 10.224C35.9279 10.224 36.2939 10.074 36.5819 9.774C36.8699 9.474 37.0139 9.12 37.0139 8.712ZM37.2479 14.256C37.2479 13.764 37.0799 13.356 36.7439 13.032C36.4199 12.696 35.9999 12.528 35.4839 12.528C34.9559 12.528 34.5239 12.69 34.1879 13.014C33.8639 13.338 33.7019 13.752 33.7019 14.256C33.7019 14.772 33.8639 15.186 34.1879 15.498C34.5239 15.798 34.9559 15.948 35.4839 15.948C36.0119 15.948 36.4379 15.798 36.7619 15.498C37.0859 15.186 37.2479 14.772 37.2479 14.256ZM57.3086 14.814C57.3086 15.282 57.2186 15.726 57.0386 16.146C56.8586 16.554 56.6126 16.914 56.3006 17.226C56.0006 17.526 55.6406 17.766 55.2206 17.946C54.8006 18.126 54.3566 18.216 53.8886 18.216C53.4206 18.216 52.9766 18.126 52.5566 17.946C52.1366 17.766 51.7706 17.526 51.4586 17.226C51.1586 16.914 50.9186 16.554 50.7386 16.146C50.5586 15.726 50.4686 15.282 50.4686 14.814C50.4686 14.346 50.5586 13.908 50.7386 13.5C50.9186 13.08 51.1586 12.72 51.4586 12.42C51.7706 12.108 52.1366 11.862 52.5566 11.682C52.9766 11.502 53.4206 11.412 53.8886 11.412C54.3566 11.412 54.8006 11.502 55.2206 11.682C55.6406 11.862 56.0006 12.108 56.3006 12.42C56.6126 12.72 56.8586 13.08 57.0386 13.5C57.2186 13.908 57.3086 14.346 57.3086 14.814ZM55.2926 14.814C55.2926 14.622 55.2506 14.442 55.1666 14.274C55.0946 14.094 54.9926 13.944 54.8606 13.824C54.7406 13.692 54.5966 13.59 54.4286 13.518C54.2606 13.446 54.0806 13.41 53.8886 13.41C53.5046 13.41 53.1746 13.548 52.8986 13.824C52.6226 14.1 52.4846 14.43 52.4846 14.814C52.4846 15.198 52.6226 15.528 52.8986 15.804C53.1746 16.068 53.5046 16.2 53.8886 16.2C54.0806 16.2 54.2606 16.164 54.4286 16.092C54.5966 16.02 54.7406 15.924 54.8606 15.804C54.9926 15.672 55.0946 15.522 55.1666 15.354C55.2506 15.186 55.2926 15.006 55.2926 14.814ZM48.6686 8.442C48.6686 8.91 48.5786 9.354 48.3986 9.774C48.2186 10.182 47.9726 10.542 47.6606 10.854C47.3606 11.154 47.0006 11.394 46.5806 11.574C46.1606 11.754 45.7166 11.844 45.2486 11.844C44.7806 11.844 44.3366 11.754 43.9166 11.574C43.4966 11.394 43.1306 11.154 42.8186 10.854C42.5186 10.542 42.2786 10.182 42.0986 9.774C41.9186 9.354 41.8286 8.91 41.8286 8.442C41.8286 7.962 41.9186 7.518 42.0986 7.11C42.2786 6.69 42.5186 6.33 42.8186 6.03C43.1306 5.718 43.4966 5.478 43.9166 5.31C44.3366 5.13 44.7806 5.04 45.2486 5.04C45.7166 5.04 46.1606 5.13 46.5806 5.31C47.0006 5.478 47.3606 5.718 47.6606 6.03C47.9726 6.33 48.2186 6.69 48.3986 7.11C48.5786 7.518 48.6686 7.962 48.6686 8.442ZM46.6526 8.442C46.6526 8.058 46.5146 7.728 46.2386 7.452C45.9626 7.176 45.6326 7.038 45.2486 7.038C44.8646 7.038 44.5346 7.176 44.2586 7.452C43.9826 7.728 43.8446 8.058 43.8446 8.442C43.8446 8.826 43.9826 9.156 44.2586 9.432C44.5346 9.696 44.8646 9.828 45.2486 9.828C45.6326 9.828 45.9626 9.696 46.2386 9.432C46.5146 9.156 46.6526 8.826 46.6526 8.442ZM46.6346 18.612L45.0326 17.82L52.4666 4.68L54.1406 5.49L46.6346 18.612Z" fill="#538E5F"/>
<circle cx="114.5" cy="10.5" r="6.5" fill="#538E5F"/>
<circle cx="114.5" cy="30.5" r="6.5" fill="#538E5F"/>
<circle cx="114.5" cy="50.5" r="6.5" fill="#538E5F"/>
<circle cx="114.5" cy="70.5" r="6.5" fill="#538E5F"/>
<circle cx="114.5" cy="90.5" r="6.5" fill="#538E5F"/>
<circle cx="134.5" cy="10.5" r="6.5" fill="#538E5F"/>
<circle cx="134.5" cy="30.5" r="6.5" fill="#538E5F"/>
<circle cx="134.5" cy="50.5" r="6.5" fill="#538E5F"/>
<circle cx="134.5" cy="70.5" r="6.5" fill="#538E5F"/>
<circle cx="134.5" cy="90.5" r="6.5" fill="#538E5F"/>
<circle cx="154.5" cy="10.5" r="6.5" fill="#538E5F"/>
<circle cx="154.5" cy="30.5" r="6.5" fill="#E0E0E0"/>
<circle cx="154.5" cy="50.5" r="6.5" fill="#E0E0E0"/>
<circle cx="154.5" cy="70.5" r="6.5" fill="#E0E0E0"/>
<circle cx="154.5" cy="90.5" r="6.5" fill="#E0E0E0"/>
<circle cx="174.5" cy="10.5" r="6.5" fill="#E0E0E0"/>
<circle cx="174.5" cy="30.5" r="6.5" fill="#E0E0E0"/>
<circle cx="174.5" cy="50.5" r="6.5" fill="#E0E0E0"/>
<circle cx="174.5" cy="70.5" r="6.5" fill="#E0E0E0"/>
<circle cx="174.5" cy="90.5" r="6.5" fill="#E0E0E0"/>
<circle cx="194.5" cy="10.5" r="6.5" fill="#E0E0E0"/>
<circle cx="194.5" cy="30.5" r="6.5" fill="#E0E0E0"/>
<circle cx="194.5" cy="50.5" r="6.5" fill="#E0E0E0"/>
<circle cx="194.5" cy="70.5" r="6.5" fill="#E0E0E0"/>
<circle cx="194.5" cy="90.5" r="6.5" fill="#E0E0E0"/>
<circle cx="214.5" cy="10.5" r="6.5" fill="#E0E0E0"/>
<circle cx="214.5" cy="30.5" r="6.5" fill="#E0E0E0"/>
<circle cx="214.5" cy="50.5" r="6.5" fill="#E0E0E0"/>
<circle cx="214.5" cy="70.5" r="6.5" fill="#E0E0E0"/>
<circle cx="214.5" cy="90.5" r="6.5" fill="#E0E0E0"/>
<circle cx="234.5" cy="10.5" r="6.5" fill="#E0E0E0"/>
<circle cx="234.5" cy="30.5" r="6.5" fill="#E0E0E0"/>
<circle cx="234.5" cy="50.5" r="6.5" fill="#E0E0E0"/>
<circle cx="234.5" cy="70.5" r="6.5" fill="#E0E0E0"/>
<circle cx="234.5" cy="90.5" r="6.5" fill="#E0E0E0"/>
<circle cx="254.5" cy="10.5" r="6.5" fill="#E0E0E0"/>
<circle cx="254.5" cy="30.5" r="6.5" fill="#E0E0E0"/>
<circle cx="254.5" cy="50.5" r="6.5" fill="#E0E0E0"/>
<circle cx="254.5" cy="70.5" r="6.5" fill="#E0E0E0"/>
<circle cx="254.5" cy="90.5" r="6.5" fill="#E0E0E0"/>
<circle cx="274.5" cy="10.5" r="6.5" fill="#E0E0E0"/>
<circle cx="274.5" cy="30.5" r="6.5" fill="#E0E0E0"/>
<circle cx="274.5" cy="50.5" r="6.5" fill="#E0E0E0"/>
<circle cx="274.5" cy="70.5" r="6.5" fill="#E0E0E0"/>
<circle cx="274.5" cy="90.5" r="6.5" fill="#E0E0E0"/>
<circle cx="294.5" cy="10.5" r="6.5" fill="#E0E0E0"/>
<circle cx="294.5" cy="30.5" r="6.5" fill="#E0E0E0"/>
<circle cx="294.5" cy="50.5" r="6.5" fill="#E0E0E0"/>
<circle cx="294.5" cy="70.5" r="6.5" fill="#E0E0E0"/>
<circle cx="294.5" cy="90.5" r="6.5" fill="#E0E0E0"/>
</svg>
