<svg width="304" height="101" viewBox="0 0 304 101" fill="none" xmlns="http://www.w3.org/2000/svg">
<rect x="-975" y="-4183" width="1350" height="7871" fill="white"/>
<path d="M2.224 18V15.48L7.192 10.98C7.504 10.68 7.756 10.374 7.948 10.062C8.14 9.75 8.236 9.402 8.236 9.018C8.236 8.562 8.092 8.196 7.804 7.92C7.516 7.632 7.132 7.488 6.652 7.488C6.148 7.488 5.734 7.668 5.41 8.028C5.098 8.376 4.912 8.838 4.852 9.414L1.954 9.018C2.026 8.37 2.2 7.794 2.476 7.29C2.764 6.786 3.124 6.36 3.556 6.012C3.988 5.652 4.48 5.382 5.032 5.202C5.596 5.01 6.19 4.914 6.814 4.914C7.402 4.914 7.972 4.992 8.524 5.148C9.076 5.304 9.568 5.544 10 5.868C10.432 6.192 10.774 6.6 11.026 7.092C11.29 7.584 11.422 8.16 11.422 8.82C11.422 9.276 11.362 9.69 11.242 10.062C11.122 10.422 10.954 10.758 10.738 11.07C10.534 11.382 10.294 11.676 10.018 11.952C9.754 12.216 9.478 12.48 9.19 12.744L6.238 15.372H11.44V18H2.224ZM13.8607 18V15.48L18.8287 10.98C19.1407 10.68 19.3927 10.374 19.5847 10.062C19.7767 9.75 19.8727 9.402 19.8727 9.018C19.8727 8.562 19.7287 8.196 19.4407 7.92C19.1527 7.632 18.7687 7.488 18.2887 7.488C17.7847 7.488 17.3707 7.668 17.0467 8.028C16.7347 8.376 16.5487 8.838 16.4887 9.414L13.5907 9.018C13.6627 8.37 13.8367 7.794 14.1127 7.29C14.4007 6.786 14.7607 6.36 15.1927 6.012C15.6247 5.652 16.1167 5.382 16.6687 5.202C17.2327 5.01 17.8267 4.914 18.4507 4.914C19.0387 4.914 19.6087 4.992 20.1607 5.148C20.7127 5.304 21.2047 5.544 21.6367 5.868C22.0687 6.192 22.4107 6.6 22.6627 7.092C22.9267 7.584 23.0587 8.16 23.0587 8.82C23.0587 9.276 22.9987 9.69 22.8787 10.062C22.7587 10.422 22.5907 10.758 22.3747 11.07C22.1707 11.382 21.9307 11.676 21.6547 11.952C21.3907 12.216 21.1147 12.48 20.8267 12.744L17.8747 15.372H23.0767V18H13.8607ZM40.2754 14.814C40.2754 15.282 40.1854 15.726 40.0054 16.146C39.8254 16.554 39.5794 16.914 39.2674 17.226C38.9674 17.526 38.6074 17.766 38.1874 17.946C37.7674 18.126 37.3234 18.216 36.8554 18.216C36.3874 18.216 35.9434 18.126 35.5234 17.946C35.1034 17.766 34.7374 17.526 34.4254 17.226C34.1254 16.914 33.8854 16.554 33.7054 16.146C33.5254 15.726 33.4354 15.282 33.4354 14.814C33.4354 14.346 33.5254 13.908 33.7054 13.5C33.8854 13.08 34.1254 12.72 34.4254 12.42C34.7374 12.108 35.1034 11.862 35.5234 11.682C35.9434 11.502 36.3874 11.412 36.8554 11.412C37.3234 11.412 37.7674 11.502 38.1874 11.682C38.6074 11.862 38.9674 12.108 39.2674 12.42C39.5794 12.72 39.8254 13.08 40.0054 13.5C40.1854 13.908 40.2754 14.346 40.2754 14.814ZM38.2594 14.814C38.2594 14.622 38.2174 14.442 38.1334 14.274C38.0614 14.094 37.9594 13.944 37.8274 13.824C37.7074 13.692 37.5634 13.59 37.3954 13.518C37.2274 13.446 37.0474 13.41 36.8554 13.41C36.4714 13.41 36.1414 13.548 35.8654 13.824C35.5894 14.1 35.4514 14.43 35.4514 14.814C35.4514 15.198 35.5894 15.528 35.8654 15.804C36.1414 16.068 36.4714 16.2 36.8554 16.2C37.0474 16.2 37.2274 16.164 37.3954 16.092C37.5634 16.02 37.7074 15.924 37.8274 15.804C37.9594 15.672 38.0614 15.522 38.1334 15.354C38.2174 15.186 38.2594 15.006 38.2594 14.814ZM31.6354 8.442C31.6354 8.91 31.5454 9.354 31.3654 9.774C31.1854 10.182 30.9394 10.542 30.6274 10.854C30.3274 11.154 29.9674 11.394 29.5474 11.574C29.1274 11.754 28.6834 11.844 28.2154 11.844C27.7474 11.844 27.3034 11.754 26.8834 11.574C26.4634 11.394 26.0974 11.154 25.7854 10.854C25.4854 10.542 25.2454 10.182 25.0654 9.774C24.8854 9.354 24.7954 8.91 24.7954 8.442C24.7954 7.962 24.8854 7.518 25.0654 7.11C25.2454 6.69 25.4854 6.33 25.7854 6.03C26.0974 5.718 26.4634 5.478 26.8834 5.31C27.3034 5.13 27.7474 5.04 28.2154 5.04C28.6834 5.04 29.1274 5.13 29.5474 5.31C29.9674 5.478 30.3274 5.718 30.6274 6.03C30.9394 6.33 31.1854 6.69 31.3654 7.11C31.5454 7.518 31.6354 7.962 31.6354 8.442ZM29.6194 8.442C29.6194 8.058 29.4814 7.728 29.2054 7.452C28.9294 7.176 28.5994 7.038 28.2154 7.038C27.8314 7.038 27.5014 7.176 27.2254 7.452C26.9494 7.728 26.8114 8.058 26.8114 8.442C26.8114 8.826 26.9494 9.156 27.2254 9.432C27.5014 9.696 27.8314 9.828 28.2154 9.828C28.5994 9.828 28.9294 9.696 29.2054 9.432C29.4814 9.156 29.6194 8.826 29.6194 8.442ZM29.6014 18.612L27.9994 17.82L35.4334 4.68L37.1074 5.49L29.6014 18.612Z" fill="#538E5F"/>
<circle cx="114.5" cy="10.5" r="6.5" fill="#538E5F"/>
<circle cx="114.5" cy="30.5" r="6.5" fill="#538E5F"/>
<circle cx="114.5" cy="50.5" r="6.5" fill="#538E5F"/>
<circle cx="114.5" cy="70.5" r="6.5" fill="#538E5F"/>
<circle cx="114.5" cy="90.5" r="6.5" fill="#538E5F"/>
<circle cx="134.5" cy="10.5" r="6.5" fill="#538E5F"/>
<circle cx="134.5" cy="30.5" r="6.5" fill="#538E5F"/>
<circle cx="134.5" cy="50.5" r="6.5" fill="#538E5F"/>
<circle cx="134.5" cy="70.5" r="6.5" fill="#538E5F"/>
<circle cx="134.5" cy="90.5" r="6.5" fill="#538E5F"/>
<circle cx="154.5" cy="10.5" r="6.5" fill="#538E5F"/>
<circle cx="154.5" cy="30.5" r="6.5" fill="#E0E0E0"/>
<circle cx="154.5" cy="50.5" r="6.5" fill="#E0E0E0"/>
<circle cx="154.5" cy="70.5" r="6.5" fill="#E0E0E0"/>
<circle cx="154.5" cy="90.5" r="6.5" fill="#E0E0E0"/>
<circle cx="174.5" cy="10.5" r="6.5" fill="#E0E0E0"/>
<circle cx="174.5" cy="30.5" r="6.5" fill="#E0E0E0"/>
<circle cx="174.5" cy="50.5" r="6.5" fill="#E0E0E0"/>
<circle cx="174.5" cy="70.5" r="6.5" fill="#E0E0E0"/>
<circle cx="174.5" cy="90.5" r="6.5" fill="#E0E0E0"/>
<circle cx="194.5" cy="10.5" r="6.5" fill="#E0E0E0"/>
<circle cx="194.5" cy="30.5" r="6.5" fill="#E0E0E0"/>
<circle cx="194.5" cy="50.5" r="6.5" fill="#E0E0E0"/>
<circle cx="194.5" cy="70.5" r="6.5" fill="#E0E0E0"/>
<circle cx="194.5" cy="90.5" r="6.5" fill="#E0E0E0"/>
<circle cx="214.5" cy="10.5" r="6.5" fill="#E0E0E0"/>
<circle cx="214.5" cy="30.5" r="6.5" fill="#E0E0E0"/>
<circle cx="214.5" cy="50.5" r="6.5" fill="#E0E0E0"/>
<circle cx="214.5" cy="70.5" r="6.5" fill="#E0E0E0"/>
<circle cx="214.5" cy="90.5" r="6.5" fill="#E0E0E0"/>
<circle cx="234.5" cy="10.5" r="6.5" fill="#E0E0E0"/>
<circle cx="234.5" cy="30.5" r="6.5" fill="#E0E0E0"/>
<circle cx="234.5" cy="50.5" r="6.5" fill="#E0E0E0"/>
<circle cx="234.5" cy="70.5" r="6.5" fill="#E0E0E0"/>
<circle cx="234.5" cy="90.5" r="6.5" fill="#E0E0E0"/>
<circle cx="254.5" cy="10.5" r="6.5" fill="#E0E0E0"/>
<circle cx="254.5" cy="30.5" r="6.5" fill="#E0E0E0"/>
<circle cx="254.5" cy="50.5" r="6.5" fill="#E0E0E0"/>
<circle cx="254.5" cy="70.5" r="6.5" fill="#E0E0E0"/>
<circle cx="254.5" cy="90.5" r="6.5" fill="#E0E0E0"/>
<circle cx="274.5" cy="10.5" r="6.5" fill="#E0E0E0"/>
<circle cx="274.5" cy="30.5" r="6.5" fill="#E0E0E0"/>
<circle cx="274.5" cy="50.5" r="6.5" fill="#E0E0E0"/>
<circle cx="274.5" cy="70.5" r="6.5" fill="#E0E0E0"/>
<circle cx="274.5" cy="90.5" r="6.5" fill="#E0E0E0"/>
<circle cx="294.5" cy="10.5" r="6.5" fill="#E0E0E0"/>
<circle cx="294.5" cy="30.5" r="6.5" fill="#E0E0E0"/>
<circle cx="294.5" cy="50.5" r="6.5" fill="#E0E0E0"/>
<circle cx="294.5" cy="70.5" r="6.5" fill="#E0E0E0"/>
<circle cx="294.5" cy="90.5" r="6.5" fill="#E0E0E0"/>
</svg>
