<svg width="304" height="101" viewBox="0 0 304 101" fill="none" xmlns="http://www.w3.org/2000/svg">
<rect x="-975" y="-4334" width="1350" height="7871" fill="white"/>
<path d="M6.094 22V12.64L3.718 14.476L2.152 12.334L6.346 9.256H9.118V22H6.094ZM21.9067 19.516V22H19.0807V19.516H13.0867V16.978L18.2707 9.256H21.8887V17.068H23.6527V19.516H21.9067ZM19.0987 12.352H19.0447L16.0207 17.068H19.0987V12.352ZM28.7914 20.416C28.7914 20.92 28.6114 21.34 28.2514 21.676C27.9034 22.012 27.4834 22.18 26.9914 22.18C26.7394 22.18 26.4994 22.132 26.2714 22.036C26.0554 21.952 25.8634 21.832 25.6954 21.676C25.5274 21.52 25.3954 21.34 25.2994 21.136C25.2034 20.92 25.1554 20.686 25.1554 20.434C25.1554 20.194 25.2034 19.966 25.2994 19.75C25.3954 19.534 25.5274 19.348 25.6954 19.192C25.8634 19.024 26.0554 18.892 26.2714 18.796C26.4994 18.7 26.7394 18.652 26.9914 18.652C27.4834 18.652 27.9034 18.82 28.2514 19.156C28.6114 19.492 28.7914 19.912 28.7914 20.416ZM40.4879 17.716C40.4879 18.436 40.3559 19.084 40.0919 19.66C39.8279 20.236 39.4679 20.722 39.0119 21.118C38.5559 21.514 38.0219 21.814 37.4099 22.018C36.7979 22.234 36.1499 22.342 35.4659 22.342C34.7699 22.342 34.1159 22.234 33.5039 22.018C32.9039 21.814 32.3759 21.514 31.9199 21.118C31.4639 20.722 31.1039 20.242 30.8399 19.678C30.5759 19.114 30.4439 18.484 30.4439 17.788C30.4439 17.032 30.5759 16.348 30.8399 15.736C31.1039 15.112 31.4459 14.482 31.8659 13.846L34.9439 9.256H38.5979L35.4659 13.612L35.4119 13.702C35.5319 13.654 35.6759 13.618 35.8439 13.594C36.0119 13.57 36.1679 13.558 36.3119 13.558C36.8639 13.558 37.3919 13.66 37.8959 13.864C38.4119 14.056 38.8559 14.338 39.2279 14.71C39.6119 15.07 39.9179 15.508 40.1459 16.024C40.3739 16.528 40.4879 17.092 40.4879 17.716ZM37.4639 17.788C37.4639 17.212 37.2839 16.738 36.9239 16.366C36.5639 15.982 36.0839 15.79 35.4839 15.79C34.8839 15.79 34.3979 15.976 34.0259 16.348C33.6539 16.72 33.4679 17.206 33.4679 17.806C33.4679 18.358 33.6479 18.832 34.0079 19.228C34.3679 19.624 34.8539 19.822 35.4659 19.822C36.0659 19.822 36.5459 19.636 36.9059 19.264C37.2779 18.892 37.4639 18.4 37.4639 17.788ZM57.3086 18.814C57.3086 19.282 57.2186 19.726 57.0386 20.146C56.8586 20.554 56.6126 20.914 56.3006 21.226C56.0006 21.526 55.6406 21.766 55.2206 21.946C54.8006 22.126 54.3566 22.216 53.8886 22.216C53.4206 22.216 52.9766 22.126 52.5566 21.946C52.1366 21.766 51.7706 21.526 51.4586 21.226C51.1586 20.914 50.9186 20.554 50.7386 20.146C50.5586 19.726 50.4686 19.282 50.4686 18.814C50.4686 18.346 50.5586 17.908 50.7386 17.5C50.9186 17.08 51.1586 16.72 51.4586 16.42C51.7706 16.108 52.1366 15.862 52.5566 15.682C52.9766 15.502 53.4206 15.412 53.8886 15.412C54.3566 15.412 54.8006 15.502 55.2206 15.682C55.6406 15.862 56.0006 16.108 56.3006 16.42C56.6126 16.72 56.8586 17.08 57.0386 17.5C57.2186 17.908 57.3086 18.346 57.3086 18.814ZM55.2926 18.814C55.2926 18.622 55.2506 18.442 55.1666 18.274C55.0946 18.094 54.9926 17.944 54.8606 17.824C54.7406 17.692 54.5966 17.59 54.4286 17.518C54.2606 17.446 54.0806 17.41 53.8886 17.41C53.5046 17.41 53.1746 17.548 52.8986 17.824C52.6226 18.1 52.4846 18.43 52.4846 18.814C52.4846 19.198 52.6226 19.528 52.8986 19.804C53.1746 20.068 53.5046 20.2 53.8886 20.2C54.0806 20.2 54.2606 20.164 54.4286 20.092C54.5966 20.02 54.7406 19.924 54.8606 19.804C54.9926 19.672 55.0946 19.522 55.1666 19.354C55.2506 19.186 55.2926 19.006 55.2926 18.814ZM48.6686 12.442C48.6686 12.91 48.5786 13.354 48.3986 13.774C48.2186 14.182 47.9726 14.542 47.6606 14.854C47.3606 15.154 47.0006 15.394 46.5806 15.574C46.1606 15.754 45.7166 15.844 45.2486 15.844C44.7806 15.844 44.3366 15.754 43.9166 15.574C43.4966 15.394 43.1306 15.154 42.8186 14.854C42.5186 14.542 42.2786 14.182 42.0986 13.774C41.9186 13.354 41.8286 12.91 41.8286 12.442C41.8286 11.962 41.9186 11.518 42.0986 11.11C42.2786 10.69 42.5186 10.33 42.8186 10.03C43.1306 9.718 43.4966 9.478 43.9166 9.31C44.3366 9.13 44.7806 9.04 45.2486 9.04C45.7166 9.04 46.1606 9.13 46.5806 9.31C47.0006 9.478 47.3606 9.718 47.6606 10.03C47.9726 10.33 48.2186 10.69 48.3986 11.11C48.5786 11.518 48.6686 11.962 48.6686 12.442ZM46.6526 12.442C46.6526 12.058 46.5146 11.728 46.2386 11.452C45.9626 11.176 45.6326 11.038 45.2486 11.038C44.8646 11.038 44.5346 11.176 44.2586 11.452C43.9826 11.728 43.8446 12.058 43.8446 12.442C43.8446 12.826 43.9826 13.156 44.2586 13.432C44.5346 13.696 44.8646 13.828 45.2486 13.828C45.6326 13.828 45.9626 13.696 46.2386 13.432C46.5146 13.156 46.6526 12.826 46.6526 12.442ZM46.6346 22.612L45.0326 21.82L52.4666 8.68L54.1406 9.49L46.6346 22.612Z" fill="#538E5F"/>
<circle cx="114.5" cy="10.5" r="6.5" fill="#538E5F"/>
<circle cx="114.5" cy="30.5" r="6.5" fill="#538E5F"/>
<circle cx="114.5" cy="50.5" r="6.5" fill="#538E5F"/>
<circle cx="114.5" cy="70.5" r="6.5" fill="#538E5F"/>
<circle cx="114.5" cy="90.5" r="6.5" fill="#538E5F"/>
<circle cx="134.5" cy="10.5" r="6.5" fill="#538E5F"/>
<circle cx="134.5" cy="30.5" r="6.5" fill="#538E5F"/>
<circle cx="134.5" cy="50.5" r="6.5" fill="#E0E0E0"/>
<circle cx="134.5" cy="70.5" r="6.5" fill="#E0E0E0"/>
<circle cx="134.5" cy="90.5" r="6.5" fill="#E0E0E0"/>
<circle cx="154.5" cy="10.5" r="6.5" fill="#E0E0E0"/>
<circle cx="154.5" cy="30.5" r="6.5" fill="#E0E0E0"/>
<circle cx="154.5" cy="50.5" r="6.5" fill="#E0E0E0"/>
<circle cx="154.5" cy="70.5" r="6.5" fill="#E0E0E0"/>
<circle cx="154.5" cy="90.5" r="6.5" fill="#E0E0E0"/>
<circle cx="174.5" cy="10.5" r="6.5" fill="#E0E0E0"/>
<circle cx="174.5" cy="30.5" r="6.5" fill="#E0E0E0"/>
<circle cx="174.5" cy="50.5" r="6.5" fill="#E0E0E0"/>
<circle cx="174.5" cy="70.5" r="6.5" fill="#E0E0E0"/>
<circle cx="174.5" cy="90.5" r="6.5" fill="#E0E0E0"/>
<circle cx="194.5" cy="10.5" r="6.5" fill="#E0E0E0"/>
<circle cx="194.5" cy="30.5" r="6.5" fill="#E0E0E0"/>
<circle cx="194.5" cy="50.5" r="6.5" fill="#E0E0E0"/>
<circle cx="194.5" cy="70.5" r="6.5" fill="#E0E0E0"/>
<circle cx="194.5" cy="90.5" r="6.5" fill="#E0E0E0"/>
<circle cx="214.5" cy="10.5" r="6.5" fill="#E0E0E0"/>
<circle cx="214.5" cy="30.5" r="6.5" fill="#E0E0E0"/>
<circle cx="214.5" cy="50.5" r="6.5" fill="#E0E0E0"/>
<circle cx="214.5" cy="70.5" r="6.5" fill="#E0E0E0"/>
<circle cx="214.5" cy="90.5" r="6.5" fill="#E0E0E0"/>
<circle cx="234.5" cy="10.5" r="6.5" fill="#E0E0E0"/>
<circle cx="234.5" cy="30.5" r="6.5" fill="#E0E0E0"/>
<circle cx="234.5" cy="50.5" r="6.5" fill="#E0E0E0"/>
<circle cx="234.5" cy="70.5" r="6.5" fill="#E0E0E0"/>
<circle cx="234.5" cy="90.5" r="6.5" fill="#E0E0E0"/>
<circle cx="254.5" cy="10.5" r="6.5" fill="#E0E0E0"/>
<circle cx="254.5" cy="30.5" r="6.5" fill="#E0E0E0"/>
<circle cx="254.5" cy="50.5" r="6.5" fill="#E0E0E0"/>
<circle cx="254.5" cy="70.5" r="6.5" fill="#E0E0E0"/>
<circle cx="254.5" cy="90.5" r="6.5" fill="#E0E0E0"/>
<circle cx="274.5" cy="10.5" r="6.5" fill="#E0E0E0"/>
<circle cx="274.5" cy="30.5" r="6.5" fill="#E0E0E0"/>
<circle cx="274.5" cy="50.5" r="6.5" fill="#E0E0E0"/>
<circle cx="274.5" cy="70.5" r="6.5" fill="#E0E0E0"/>
<circle cx="274.5" cy="90.5" r="6.5" fill="#E0E0E0"/>
<circle cx="294.5" cy="10.5" r="6.5" fill="#E0E0E0"/>
<circle cx="294.5" cy="30.5" r="6.5" fill="#E0E0E0"/>
<circle cx="294.5" cy="50.5" r="6.5" fill="#E0E0E0"/>
<circle cx="294.5" cy="70.5" r="6.5" fill="#E0E0E0"/>
<circle cx="294.5" cy="90.5" r="6.5" fill="#E0E0E0"/>
</svg>
